<svg xmlns="http://www.w3.org/2000/svg" xmlns:xlink="http://www.w3.org/1999/xlink" width="336.796" height="61.352" viewBox="0 0 336.796 61.352">
  <defs>
    <style>
      .cls-1 {
        fill: #fff;
      }

      .cls-2 {
        fill: url(#linear-gradient);
      }

      .cls-3 {
        fill: #041e5d;
      }

      .cls-4 {
        fill: #a2bc1e;
      }

      .cls-5 {
        fill: #264694;
      }
    </style>
    <linearGradient id="linear-gradient" y1="0.5" x2="1" y2="0.5" gradientUnits="objectBoundingBox">
      <stop offset="0" stop-color="#274794" stop-opacity="0"/>
      <stop offset="0.8" stop-color="#fff"/>
      <stop offset="1" stop-color="#fff"/>
    </linearGradient>
  </defs>
  <g id="Group_66" data-name="Group 66" transform="translate(-157.253 -182.992)">
    <g id="Type" transform="translate(183.675 182.992)">
      <g id="Group_6" data-name="Group 6" transform="translate(0)">
        <g id="Group_1" data-name="Group 1">
          <path id="Path_1" data-name="Path 1" class="cls-1" d="M206.423,201.9h-3.248a1.588,1.588,0,0,1-1.516-1.588v-4.908a1.5,1.5,0,0,1,1.516-1.588h3.248V184.58a1.652,1.652,0,0,1,1.589-1.588h5.919a1.542,1.542,0,0,1,1.515,1.588v9.239h7.795a1.557,1.557,0,0,1,1.589,1.588v4.908a1.652,1.652,0,0,1-1.589,1.588h-7.795v15.013c0,2.238,1.082,2.742,2.742,2.742a22.028,22.028,0,0,0,5.053-1.082,1.286,1.286,0,0,1,1.877.866l.939,4.4a1.626,1.626,0,0,1-.939,1.949,26.332,26.332,0,0,1-9.383,2.165c-7.435,0-9.311-4.98-9.311-10.754Z" transform="translate(-201.659 -182.992)"/>
          <path id="Path_2" data-name="Path 2" class="cls-1" d="M261.179,199.975c8.661,0,15.3,6.424,15.3,15.447a21.69,21.69,0,0,1-.145,2.165,1.693,1.693,0,0,1-1.588,1.516H253.383a8.011,8.011,0,0,0,8.3,7.723,11.055,11.055,0,0,0,7.146-2.454c.793-.65,1.661-.722,2.165,0l2.814,3.753a1.4,1.4,0,0,1-.144,2.166,18.831,18.831,0,0,1-12.414,4.546c-9.961,0-16.89-7.939-16.89-17.467C244.361,207.987,251.29,199.975,261.179,199.975Zm6.207,13.209a6.094,6.094,0,0,0-6.424-5.774c-4.042,0-6.64,2.454-7.074,5.774Z" transform="translate(-218.953 -189.87)"/>
          <path id="Path_3" data-name="Path 3" class="cls-1" d="M304.286,202.285a1.6,1.6,0,0,1,1.588-1.588h2.6a1.294,1.294,0,0,1,1.372.938l1.226,3.176a12.679,12.679,0,0,1,10.178-4.836c4.836,0,7.218,1.733,9.961,5.052a14.232,14.232,0,0,1,10.755-5.052c10.682,0,13.208,6.785,13.208,15.447v17.034a1.618,1.618,0,0,1-1.659,1.587h-5.775a1.6,1.6,0,0,1-1.587-1.587V215.2c0-4.331-1.589-7-5.775-7-4.835,0-6.207,3.464-6.207,3.464s.143,1.66.143,3.176v17.612a1.65,1.65,0,0,1-1.587,1.587h-5.919a1.556,1.556,0,0,1-1.588-1.587V215.2c0-4.331-1.226-7-5.485-7-4.114,0-5.63,2.886-6.424,5.2v19.055a1.651,1.651,0,0,1-1.587,1.587h-5.847a1.651,1.651,0,0,1-1.588-1.587Z" transform="translate(-243.222 -189.87)"/>
          <path id="Path_4" data-name="Path 4" class="cls-1" d="M415.316,234.837a24.782,24.782,0,0,1-8.012-1.371v16.168a1.708,1.708,0,0,1-1.589,1.587H399.87a1.652,1.652,0,0,1-1.589-1.587V202.285a1.6,1.6,0,0,1,1.589-1.588h2.67c.794,0,1.3.65,1.588,1.588l.866,2.67a14.4,14.4,0,0,1,10.9-4.98c9.1,0,15.952,7.362,15.952,17.468C431.844,227.186,425.276,234.837,415.316,234.837Zm-8.012-10.1a13.188,13.188,0,0,0,6.929,1.877c5.485,0,8.3-4.475,8.3-9.166s-2.671-9.239-7.868-9.239a7.647,7.647,0,0,0-7.362,4.619Z" transform="translate(-281.289 -189.87)"/>
          <path id="Path_5" data-name="Path 5" class="cls-1" d="M477.648,199.975a16.514,16.514,0,0,1,12.416,5.63c.721.722.361,1.66-.361,2.382l-3.031,3.32c-.722.794-1.516.433-2.166-.217a9.081,9.081,0,0,0-6.64-2.886c-5.2,0-8.806,4.041-8.806,9.166,0,5.2,3.537,9.239,8.734,9.239,3.681,0,5.63-2.021,7.073-3.681a1.566,1.566,0,0,1,2.094-.217l3.248,2.743c.794.722,1.155,1.516.577,2.382a14.927,14.927,0,0,1-13.208,7,17.432,17.432,0,1,1,.071-34.862Z" transform="translate(-306.27 -189.87)"/>
          <path id="Path_6" data-name="Path 6" class="cls-1" d="M530.905,199.975A17.329,17.329,0,0,1,548.012,217.3c0,9.528-7.651,17.539-17.107,17.539-9.383,0-17.034-8.011-17.034-17.539A17.315,17.315,0,0,1,530.905,199.975Zm0,26.634c4.836,0,8.734-4.186,8.734-9.311a8.706,8.706,0,1,0-17.4,0C522.243,222.422,526.069,226.609,530.905,226.609Z" transform="translate(-328.101 -189.87)"/>
          <path id="Path_7" data-name="Path 7" class="cls-1" d="M569.831,203.137c-.506-1.011-.073-1.949,1.154-1.949h6.858a1.537,1.537,0,0,1,1.515.938l6.929,16.457h.145l7.362-16.457c.433-.866,1.155-.938,2.093-.938h6.063a1.215,1.215,0,0,1,1.155,1.949l-15.012,31.325a1.7,1.7,0,0,1-1.445.866h-.433a1.694,1.694,0,0,1-1.443-.866Z" transform="translate(-350.681 -190.361)"/>
          <path id="Path_8" data-name="Path 8" class="cls-1" d="M641.743,199.975c8.662,0,15.3,6.424,15.3,15.447,0,.505-.072,1.66-.143,2.165a1.7,1.7,0,0,1-1.589,1.516H633.947a8.012,8.012,0,0,0,8.3,7.723,11.054,11.054,0,0,0,7.147-2.454c.794-.65,1.66-.722,2.165,0l2.815,3.753a1.4,1.4,0,0,1-.145,2.166,18.826,18.826,0,0,1-12.414,4.546c-9.961,0-16.89-7.939-16.89-17.467C624.925,207.987,631.854,199.975,641.743,199.975Zm6.208,13.209a6.094,6.094,0,0,0-6.424-5.774c-4.042,0-6.641,2.454-7.074,5.774Z" transform="translate(-373.077 -189.87)"/>
          <path id="Path_9" data-name="Path 9" class="cls-1" d="M685.043,202.285a1.6,1.6,0,0,1,1.589-1.588h2.67a1.4,1.4,0,0,1,1.444,1.082l1.227,3.248a11.583,11.583,0,0,1,9.382-5.052c3.97,0,7.219,1.082,6.28,3.248l-2.164,4.908a1.4,1.4,0,0,1-1.949.722,6.645,6.645,0,0,0-3.1-.649,7.244,7.244,0,0,0-6.351,3.464v20.787c0,1.227-.794,1.587-1.877,1.587h-5.557a1.651,1.651,0,0,1-1.589-1.587Z" transform="translate(-397.424 -189.87)"/>
        </g>
      </g>
    </g>
    <g id="Car" transform="translate(157.253 191.968)">
      <g id="Group_12" data-name="Group 12" transform="translate(0 0)">
        <g id="Group_8" data-name="Group 8" transform="translate(0 3.345)">
          <g id="Group_7" data-name="Group 7">
            <rect id="Rectangle_1" data-name="Rectangle 1" class="cls-2" width="30.078" height="3.271" transform="translate(0 6.505)"/>
            <rect id="Rectangle_2" data-name="Rectangle 2" class="cls-2" width="30.078" height="3.27"/>
          </g>
        </g>
        <rect id="Rectangle_3" data-name="Rectangle 3" class="cls-3" width="10.04" height="2.426" transform="translate(30.765 11.908)"/>
        <g id="Group_11" data-name="Group 11" transform="translate(24.793)">
          <g id="Group_10" data-name="Group 10">
            <g id="Group_9" data-name="Group 9">
              <path id="Path_68" data-name="Path 68" class="cls-4" d="M225.122,204.4h0c0-4.717-2.629-4.9-3.794-5.036-1.4-.156-2.368-.268-3.027-.317-.481-.036-3.04-.607-4.333-.783a35.926,35.926,0,0,0-7.337,0c-.921.154-2.847.853-4.089,1.179-1.3.343-1.983.193-2.531.591-1.15.832-1.09,4.316-1.09,4.918,0,0-.06,3.5,1.09,4.329.854.62,4.362.858,10.849.858h10.467c1.1,0,3.788.032,3.794-5.417h0V204.4Z" transform="translate(-198.921 -198.077)"/>
            </g>
            <path id="Path_69" data-name="Path 69" class="cls-5" d="M202.744,207.679a19.491,19.491,0,0,1-.256-3,12.906,12.906,0,0,1,.3-2.789.837.837,0,0,1,.685-.689l3.033-.959c.317-.132.537.156.491.456,0,0-.194,1.62-.194,2.675a24.346,24.346,0,0,0,.2,2.565c.049.3-.156.514-.49.7l-3.122,1.517C203.013,208.331,202.788,207.98,202.744,207.679Z" transform="translate(-200.366 -198.939)"/>
            <path id="Path_70" data-name="Path 70" class="cls-5" d="M218.768,213.516h-8.974c-1.8,0-1.814-.876-.034-1.438a13.926,13.926,0,0,1,3.821-.444C218.119,211.634,220.566,213.516,218.768,213.516Z" transform="translate(-202.774 -203.567)"/>
            <path id="Path_71" data-name="Path 71" class="cls-5" d="M228.324,207.95a.544.544,0,0,1-.783.3l-2.921-1.58a.9.9,0,0,1-.471-.815,24.719,24.719,0,0,0,.243-2.838,28.484,28.484,0,0,0-.238-2.948.393.393,0,0,1,.472-.487l3.059.652a.734.734,0,0,1,.652.6,11.741,11.741,0,0,1,.456,3.514A13.153,13.153,0,0,1,228.324,207.95Z" transform="translate(-209.134 -198.682)"/>
          </g>
          <path id="Path_72" data-name="Path 72" class="cls-5" d="M208.462,217.586c0,.594-.924,1.076-2.064,1.076s-2.065-.482-2.065-1.076.925-1.077,2.065-1.077S208.462,216.991,208.462,217.586Z" transform="translate(-201.113 -205.542)"/>
          <path id="Path_73" data-name="Path 73" class="cls-5" d="M233.834,217.586c0,.594-.925,1.076-2.065,1.076s-2.064-.482-2.064-1.076.924-1.077,2.064-1.077S233.834,216.991,233.834,217.586Z" transform="translate(-211.388 -205.542)"/>
        </g>
      </g>
    </g>
  </g>
</svg>
